<?xml version="1.0" encoding="UTF-8" standalone="no"?>
<svg
   xmlns:dc="http://purl.org/dc/elements/1.1/"
   xmlns:cc="http://creativecommons.org/ns#"
   xmlns:rdf="http://www.w3.org/1999/02/22-rdf-syntax-ns#"
   xmlns:svg="http://www.w3.org/2000/svg"
   xmlns="http://www.w3.org/2000/svg"
   xmlns:sodipodi="http://sodipodi.sourceforge.net/DTD/sodipodi-0.dtd"
   xmlns:inkscape="http://www.inkscape.org/namespaces/inkscape"
   width="86mm"
   height="86mm"
   viewBox="0 0 86 86"
   version="1.1"
   id="svg4686"
   inkscape:version="1.0 (4035a4fb49, 2020-05-01)"
   sodipodi:docname="logo_square.svg"
   inkscape:export-filename="C:\Daten\Arbeit\MSOT\logo_square.png"
   inkscape:export-xdpi="299"
   inkscape:export-ydpi="299">
  <defs
     id="defs4680" />
  <sodipodi:namedview
     id="base"
     pagecolor="#ffffff"
     bordercolor="#666666"
     borderopacity="1.0"
     inkscape:pageopacity="0.0"
     inkscape:pageshadow="2"
     inkscape:zoom="0.98994949"
     inkscape:cx="149.8589"
     inkscape:cy="289.1911"
     inkscape:document-units="mm"
     inkscape:current-layer="layer1"
     inkscape:document-rotation="0"
     showgrid="false"
     fit-margin-top="0"
     fit-margin-left="0"
     fit-margin-right="0"
     fit-margin-bottom="0"
     inkscape:window-width="1593"
     inkscape:window-height="1020"
     inkscape:window-x="152"
     inkscape:window-y="0"
     inkscape:window-maximized="0" />
  <metadata
     id="metadata4683">
    <rdf:RDF>
      <cc:Work
         rdf:about="">
        <dc:format>image/svg+xml</dc:format>
        <dc:type
           rdf:resource="http://purl.org/dc/dcmitype/StillImage" />
        <dc:title />
      </cc:Work>
    </rdf:RDF>
  </metadata>
  <g
     inkscape:label="Ebene 1"
     inkscape:groupmode="layer"
     id="layer1"
     transform="translate(-66.183167,-39.579178)">
    <rect
       style="opacity:0.78;fill:#ffffff;fill-opacity:1;stroke:none;stroke-width:1.67644;stroke-linecap:round"
       id="rect6163"
       width="86"
       height="86"
       x="66.183167"
       y="39.579178" />
    <path
       inkscape:export-ydpi="299.92712"
       inkscape:export-xdpi="299.92712"
       sodipodi:nodetypes="cscccsczcc"
       id="path28-7"
       d="m 146.40667,91.694773 c 0,0 0.843,-5.913015 0.14464,-12.647795 -0.9702,-9.356291 -4.02983,-16.46592 -9.49955,-22.315 -6.57207,5.81567 -11.71726,12.662209 -11.71726,12.662209 0,0 -6.85508,-9.099689 -13.04018,-13.229169 -6.54103,7.547649 -9.60861,18.7382 -10.00742,29.140739 -0.2318,6.0462 0.12144,9.27476 -3.032754,14.51551 -3.154171,5.240753 -11.21646,10.678013 -17.57584,9.827383 -6.359381,-0.85063 -11.154143,-6.45526 -10.394343,-10.772318 0.7598,-6.7739 5.291661,-10.583334 5.291661,-10.583334"
       style="fill:none;stroke:#000000;stroke-width:5.265;stroke-linecap:round;stroke-linejoin:miter;stroke-miterlimit:4;stroke-dasharray:none;stroke-opacity:1" />
    <path
       inkscape:export-ydpi="299.92712"
       inkscape:export-xdpi="299.92712"
       d="m 116.86996,77.142478 a 2.8746852,2.5986439 0 0 0 -2.87497,2.59865 2.8746852,2.5986439 0 0 0 2.87497,2.598661 2.8746852,2.5986439 0 0 0 2.62703,-1.544392 l -1.96282,-1.098068 1.89077,-1.146751 a 2.8746852,2.5986439 0 0 0 -2.55498,-1.4081 z"
       style="stroke-width:4.39253;stroke-linecap:round;stroke-miterlimit:4;stroke-dasharray:none"
       id="path853-0" />
    <path
       inkscape:export-ydpi="299.92712"
       inkscape:export-xdpi="299.92712"
       id="path853-7-2"
       style="stroke-width:4.39253;stroke-linecap:round;stroke-miterlimit:4;stroke-dasharray:none"
       d="m 133.22382,77.237188 a 2.874685,2.598644 0 0 0 -2.87497,2.59865 2.874685,2.598644 0 0 0 2.87497,2.598661 2.874685,2.598644 0 0 0 2.62703,-1.544392 l -1.96282,-1.098071 1.89077,-1.146748 a 2.874685,2.598644 0 0 0 -2.55498,-1.4081 z" />
  </g>
</svg>
