<?xml version="1.0" encoding="UTF-8" standalone="no"?>
<svg
   xmlns:dc="http://purl.org/dc/elements/1.1/"
   xmlns:cc="http://creativecommons.org/ns#"
   xmlns:rdf="http://www.w3.org/1999/02/22-rdf-syntax-ns#"
   xmlns:svg="http://www.w3.org/2000/svg"
   xmlns="http://www.w3.org/2000/svg"
   xmlns:sodipodi="http://sodipodi.sourceforge.net/DTD/sodipodi-0.dtd"
   xmlns:inkscape="http://www.inkscape.org/namespaces/inkscape"
   sodipodi:docname="mcat.svg"
   inkscape:version="1.0 (4035a4fb49, 2020-05-01)"
   inkscape:export-ydpi="299.92712"
   inkscape:export-xdpi="299.92712"
   inkscape:export-filename="C:\Daten\Arbeit\MSOT\mcat.png"
   id="svg18918"
   version="1.1"
   viewBox="0 0 118.22339 57.897228"
   height="57.897228mm"
   width="118.22339mm">
  <defs
     id="defs18912" />
  <sodipodi:namedview
     inkscape:window-maximized="0"
     inkscape:window-y="0"
     inkscape:window-x="38"
     inkscape:window-height="1020"
     inkscape:window-width="1593"
     fit-margin-bottom="0"
     fit-margin-right="0"
     fit-margin-left="0"
     fit-margin-top="0"
     showgrid="false"
     inkscape:document-rotation="0"
     inkscape:current-layer="layer1"
     inkscape:document-units="mm"
     inkscape:cy="546.55494"
     inkscape:cx="-603.72858"
     inkscape:zoom="0.35"
     inkscape:pageshadow="2"
     inkscape:pageopacity="0.0"
     borderopacity="1.0"
     bordercolor="#666666"
     pagecolor="#ffffff"
     id="base" />
  <metadata
     id="metadata18915">
    <rdf:RDF>
      <cc:Work
         rdf:about="">
        <dc:format>image/svg+xml</dc:format>
        <dc:type
           rdf:resource="http://purl.org/dc/dcmitype/StillImage" />
        <dc:title></dc:title>
      </cc:Work>
    </rdf:RDF>
  </metadata>
  <g
     transform="translate(-8.1680688,-3.5573393)"
     id="layer1"
     inkscape:groupmode="layer"
     inkscape:label="Ebene 1">
    <text
       xml:space="preserve"
       style="font-style:normal;font-variant:normal;font-weight:normal;font-stretch:normal;font-size:10.5833px;line-height:1.25;font-family:'MV Boli';-inkscape-font-specification:'MV Boli';fill:#000000;fill-opacity:1;stroke:none;stroke-width:0.264583"
       x="89.432472"
       y="43.8316"
       id="text26-4"
       inkscape:export-xdpi="299.92712"
       inkscape:export-ydpi="299.92712"><tspan
         sodipodi:role="line"
         id="tspan24-1"
         x="89.432472"
         y="43.8316"
         style="font-style:normal;font-variant:normal;font-weight:normal;font-stretch:normal;font-size:25.4px;font-family:'MV Boli';-inkscape-font-specification:'MV Boli';stroke-width:0.264583">cat</tspan></text>
    <path
       style="fill:none;stroke:#000000;stroke-width:5.465;stroke-linecap:round;stroke-linejoin:miter;stroke-miterlimit:4;stroke-dasharray:none;stroke-opacity:1"
       d="m 84.896746,47.044384 c 0,0 1.315469,-10.259739 0.617112,-16.994517 C 84.543652,20.693576 81.484029,13.583946 76.014303,7.7348658 69.442233,13.550536 64.297045,20.397076 64.297045,20.397076 c 0,0 -6.855087,-9.099691 -13.040184,-13.2291702 -6.541035,7.5476502 -9.608611,18.7382002 -10.00742,29.1407412 -0.231804,6.046199 0.121436,9.274758 -3.032758,14.515509 -3.154186,5.24075 -11.216512,8.599142 -17.575892,7.74851 C 14.28141,57.722036 10.2426,52.684375 11.0024,48.367314 c 0.7598,-6.773899 8.315471,-6.047618 8.315471,-6.047618"
       id="path28-7"
       sodipodi:nodetypes="cscccsczcc"
       inkscape:export-xdpi="299.92712"
       inkscape:export-ydpi="299.92712" />
    <path
       id="path853-0"
       style="stroke-width:4.39253;stroke-linecap:round;stroke-miterlimit:4;stroke-dasharray:none"
       d="m 55.832499,28.145366 a 2.8746852,2.5986439 0 0 0 -2.874965,2.598649 2.8746852,2.5986439 0 0 0 2.874965,2.59866 2.8746852,2.5986439 0 0 0 2.627036,-1.544388 l -1.962824,-1.098071 1.890775,-1.14675 a 2.8746852,2.5986439 0 0 0 -2.554987,-1.4081 z"
       inkscape:export-xdpi="299.92712"
       inkscape:export-ydpi="299.92712" />
    <path
       d="m 72.186359,28.240076 a 2.874685,2.598644 0 0 0 -2.874968,2.598649 2.874685,2.598644 0 0 0 2.874968,2.598661 2.874685,2.598644 0 0 0 2.627032,-1.544389 l -1.962822,-1.098071 1.890776,-1.14675 a 2.874685,2.598644 0 0 0 -2.554986,-1.4081 z"
       style="stroke-width:4.39253;stroke-linecap:round;stroke-miterlimit:4;stroke-dasharray:none"
       id="path853-7-2"
       inkscape:export-xdpi="299.92712"
       inkscape:export-ydpi="299.92712" />
  </g>
</svg>
